<svg width="512" height="512" viewBox="0 0 512 512" fill="none" xmlns="http://www.w3.org/2000/svg">
<rect x="67.8588" y="55.5739" width="401.302" height="405.982" fill="white"/>
<path d="M508.408 353.942C502.221 330.934 493.964 308.533 483.739 287.013C467.621 253.028 447.045 221.343 422.555 192.795C454.045 233.159 451.219 291.658 414.09 328.764L351.631 391.229C350.724 392.317 306.37 444.913 231.269 482.487C218.415 488.926 205.199 494.617 191.689 499.534C177.751 504.603 163.501 508.767 149.026 512H368.455C388.536 512.035 408.399 507.837 426.749 499.68C431.062 497.75 435.273 495.603 439.367 493.245C461.423 480.719 479.763 462.57 492.52 440.648C505.277 418.726 511.995 393.813 511.988 368.449C510.888 363.535 509.695 358.7 508.408 353.942Z" fill="url(#paint0_linear_201_34)"/>
<path d="M368.443 0.000157065H143.55C112.291 -0.0461686 81.8789 10.1564 56.972 29.0448C29.8791 49.5384 10.925 78.9696 3.47478 112.113C0.298287 150.758 12.4134 190.127 28.8984 224.776C46.0912 260.929 68.391 291.956 84.133 311.676C71.4213 291.91 65.8572 268.388 68.3656 245.021C70.8739 221.654 81.3037 199.849 97.9212 183.23L180.153 100.969L180.323 100.811L183.248 97.8863C187.719 93.4146 192.589 89.3594 197.796 85.7712C197.796 85.7712 197.796 85.7712 197.831 85.7712C215.258 71.6145 244.268 50.0869 278.946 32.3442C290.359 26.4735 302.097 21.2587 314.104 16.725C338.235 7.68106 363.91 1.65567 389.567 1.57962C382.575 0.532069 375.514 0.00413539 368.443 0.000157065Z" fill="url(#paint1_linear_201_34)"/>
<path d="M509.168 115.19C503.331 86.2546 488.72 59.8206 467.322 39.4864C445.924 19.1522 418.78 5.90582 389.585 1.55029C363.922 1.62634 338.246 7.65173 314.121 16.6957C302.115 21.2293 290.376 26.4442 278.964 32.3148C244.274 50.0634 215.264 71.5851 197.837 85.7419C217.653 72.185 241.584 65.9799 265.491 68.1996C289.397 70.4194 311.777 80.9245 328.758 97.8979L402.466 171.607L402.525 171.665C403.028 172.115 406.696 175.485 412.47 181.581L414.102 183.219C417.111 186.223 419.93 189.411 422.543 192.766C447.04 221.322 467.62 253.017 483.739 287.013C493.965 308.533 502.221 330.934 508.408 353.942C509.683 358.7 510.877 363.535 511.988 368.449V143.55C511.99 134.027 511.045 124.527 509.168 115.19Z" fill="url(#paint2_linear_201_34)"/>
<path opacity="0.05" d="M362.921 252.154C362.921 251.873 362.921 251.598 362.886 251.317C362.851 251.036 362.886 250.767 362.851 250.498C362.851 250.036 362.798 249.585 362.775 249.129C362.751 248.673 362.722 248.351 362.693 247.959C362.658 247.433 362.617 246.924 362.564 246.403C362.512 245.883 362.482 245.508 362.441 245.052C362.4 244.596 362.348 244.157 362.289 243.706L362.184 242.782C362.055 241.747 361.915 240.723 361.757 239.699C361.622 238.839 361.482 237.979 361.336 237.125C361.248 236.663 361.166 236.201 361.078 235.745C360.932 234.99 360.78 234.241 360.622 233.492C360.625 233.475 360.625 233.457 360.622 233.44C360.458 232.638 360.277 231.849 360.084 231.053C359.891 230.257 359.698 229.456 359.499 228.66C359.3 227.865 359.078 227.075 358.85 226.32C358.621 225.566 358.387 224.747 358.142 223.981C357.896 223.214 357.662 222.465 357.405 221.717C357.407 221.697 357.407 221.678 357.405 221.658C357.159 220.927 356.902 220.207 356.644 219.482C356.644 219.4 356.586 219.324 356.556 219.242C356.287 218.523 356.018 217.797 355.737 217.084C344.273 201.408 329.273 188.658 311.955 179.868C294.637 171.079 275.49 166.498 256.07 166.498C236.649 166.498 217.503 171.079 200.185 179.868C182.867 188.658 167.867 201.408 156.403 217.084C155.818 218.593 155.233 220.114 154.735 221.658C154.733 221.678 154.733 221.697 154.735 221.717C154.49 222.465 154.238 223.226 153.998 223.981C153.758 224.735 153.519 225.537 153.29 226.32C153.062 227.104 152.846 227.894 152.641 228.66C152.436 229.427 152.226 230.257 152.056 231.053C151.886 231.849 151.682 232.638 151.518 233.44C151.515 233.457 151.515 233.475 151.518 233.492C151.36 234.241 151.208 234.99 151.062 235.745C150.623 238.055 150.248 240.425 149.956 242.765L149.851 243.689C149.816 243.975 149.786 244.274 149.757 244.543C149.71 244.958 149.663 245.374 149.628 245.795C149.558 246.503 149.5 247.216 149.447 247.942C149.418 248.281 149.394 248.626 149.377 248.971C149.324 249.743 149.283 250.516 149.254 251.311C149.254 251.592 149.254 251.867 149.219 252.148C149.172 253.423 149.149 254.704 149.149 255.991C149.149 257.284 149.149 258.565 149.219 259.846C149.219 260.109 149.219 260.379 149.248 260.636C149.277 260.893 149.277 261.221 149.289 261.496C149.289 261.976 149.342 262.449 149.377 262.923C149.412 263.397 149.418 263.695 149.453 264.093C149.5 264.803 149.558 265.505 149.628 266.199C149.663 266.62 149.71 267.036 149.757 267.445C149.786 267.732 149.816 268.03 149.851 268.288C149.886 268.545 149.927 268.978 149.968 269.317C150.038 269.867 150.108 270.423 150.19 270.967C150.231 271.283 150.272 271.604 150.324 271.92C150.406 272.505 150.5 273.09 150.599 273.675C150.734 274.5 150.88 275.313 151.032 276.126C151.032 276.173 151.032 276.22 151.062 276.267C151.179 276.904 151.307 277.542 151.448 278.174C151.494 278.408 151.547 278.648 151.6 278.882C151.717 279.467 151.851 280.052 151.992 280.637C152.226 281.637 152.477 282.62 152.741 283.603C152.887 284.188 153.045 284.737 153.203 285.305C153.203 285.34 153.203 285.381 153.244 285.416C153.314 285.673 153.384 285.919 153.46 286.177C153.653 286.826 153.852 287.475 154.045 288.13C154.238 288.786 154.478 289.458 154.7 290.125L154.893 290.675C155.116 291.36 155.355 292.032 155.607 292.705C155.616 292.739 155.628 292.772 155.642 292.804C155.87 293.43 156.104 294.056 156.35 294.676C156.391 294.782 156.432 294.899 156.479 295.004C167.946 310.67 182.945 323.412 200.259 332.196C217.573 340.98 236.714 345.557 256.129 345.557C275.543 345.557 294.684 340.98 311.998 332.196C329.312 323.412 344.311 310.67 355.778 295.004C355.837 294.869 355.884 294.729 355.942 294.595C356.106 294.185 356.264 293.77 356.41 293.354C356.556 292.939 356.72 292.535 356.867 292.12C357.013 291.705 357.182 291.231 357.329 290.786C357.411 290.564 357.487 290.342 357.557 290.125C357.785 289.458 357.996 288.803 358.206 288.13C358.417 287.458 358.604 286.826 358.791 286.177C358.867 285.919 358.937 285.673 359.008 285.416C359.008 285.381 359.008 285.34 359.049 285.305C359.206 284.72 359.364 284.17 359.511 283.603C359.774 282.62 360.025 281.637 360.254 280.637C360.4 280.052 360.534 279.467 360.651 278.882C360.704 278.648 360.757 278.408 360.803 278.174C360.944 277.542 361.073 276.904 361.19 276.267C361.187 276.22 361.187 276.173 361.19 276.126C361.517 274.424 361.775 272.704 362.032 270.979C362.108 270.434 362.184 269.879 362.254 269.329C362.295 268.99 362.336 268.644 362.371 268.299C362.43 267.855 362.477 267.404 362.523 266.954C362.57 266.503 362.611 266.059 362.646 265.602C362.681 265.146 362.734 264.608 362.769 264.105C362.839 263.245 362.892 262.391 362.933 261.519C362.933 261.233 362.933 260.934 362.974 260.659C363.015 260.384 362.974 260.133 363.003 259.87C363.05 258.588 363.073 257.307 363.073 256.015C363.073 254.722 362.95 253.429 362.921 252.154ZM288.475 267.878C288.282 268.399 288.078 268.925 287.861 269.44C287.645 269.955 287.487 270.306 287.276 270.727C287.066 271.148 286.96 271.394 286.791 271.721C286.364 272.558 285.896 273.377 285.404 274.178L284.86 275.038C284.638 275.36 284.421 275.682 284.199 275.992C283.883 276.44 283.55 276.885 283.199 277.326C282.86 277.753 282.509 278.186 282.146 278.607C281.959 278.812 281.783 279.016 281.602 279.192C281.222 279.601 280.841 280.005 280.432 280.391C279.259 281.565 278.004 282.654 276.676 283.649C276.454 283.819 276.237 283.977 276.009 284.135C275.647 284.392 275.278 284.644 274.904 284.878C274.529 285.112 274.26 285.299 273.927 285.504C273.453 285.79 272.967 286.089 272.482 286.334C271.751 286.726 270.996 287.107 270.224 287.452C269.709 287.686 269.194 287.902 268.679 288.113C267.814 288.44 266.924 288.756 266.035 289.025C259.409 291.023 252.337 290.998 245.724 288.955C244.905 288.698 244.11 288.417 243.32 288.113C242.8 287.896 242.279 287.68 241.77 287.452C241.004 287.107 240.255 286.726 239.518 286.334C239.149 286.136 238.781 285.919 238.418 285.703L238.073 285.498L237.371 285.059C237.137 284.907 236.903 284.755 236.681 284.597C236.224 284.287 235.78 283.965 235.329 283.638C232.666 281.645 230.302 279.281 228.309 276.618C227.976 276.173 227.654 275.729 227.344 275.267C227.186 275.038 227.034 274.804 226.882 274.57L226.443 273.868C226.373 273.757 226.309 273.64 226.239 273.523C226.028 273.161 225.811 272.798 225.613 272.423C225.209 271.686 224.829 270.938 224.489 270.171C224.267 269.662 224.045 269.148 223.834 268.621C223.495 267.755 223.179 266.866 222.922 265.983C220.925 259.354 220.949 252.281 222.992 245.666C223.237 244.853 223.518 244.051 223.834 243.268C224.039 242.741 224.255 242.226 224.489 241.723C224.829 240.951 225.209 240.196 225.613 239.465C226.016 238.734 226.437 238.009 226.882 237.312C227.338 236.616 227.812 235.932 228.309 235.271C229.298 233.936 230.387 232.678 231.568 231.509C235.119 227.947 239.405 225.204 244.127 223.472L244.917 223.202C252.662 220.593 261.079 220.8 268.685 223.787C269.206 223.992 269.727 224.215 270.23 224.437C270.481 224.56 270.739 224.671 270.984 224.8C271.487 225.039 271.985 225.297 272.476 225.566C272.722 225.695 272.962 225.829 273.196 225.969C273.441 226.102 273.681 226.242 273.915 226.391C274.389 226.683 274.857 226.976 275.313 227.292L275.992 227.765C277.117 228.571 278.195 229.44 279.221 230.369C279.426 230.55 279.625 230.743 279.806 230.954L280.391 231.539C280.98 232.124 281.547 232.73 282.093 233.358L282.175 233.457C282.52 233.838 282.836 234.235 283.146 234.627C283.45 235.002 283.731 235.382 284.012 235.797L284.147 235.973C284.31 236.195 284.462 236.423 284.62 236.651C284.62 236.651 284.72 236.809 284.778 236.885C285.03 237.266 285.281 237.658 285.521 238.055C285.668 238.289 285.808 238.529 285.942 238.769C286.09 239.004 286.224 239.246 286.346 239.494C286.615 239.974 286.873 240.471 287.112 240.974C287.481 241.729 287.82 242.495 288.124 243.285C288.341 243.8 288.528 244.332 288.709 244.865C291.228 252.332 291.129 260.434 288.429 267.837L288.475 267.878ZM301.69 227.988C298.352 227.989 295.088 227 292.312 225.146C289.536 223.292 287.371 220.656 286.093 217.572C284.815 214.488 284.481 211.094 285.132 207.82C285.783 204.545 287.39 201.538 289.751 199.177C292.111 196.816 295.119 195.209 298.393 194.558C301.668 193.907 305.062 194.242 308.146 195.52C311.23 196.798 313.866 198.962 315.72 201.738C317.574 204.514 318.563 207.778 318.561 211.117C318.561 215.591 316.784 219.882 313.62 223.046C310.456 226.21 306.165 227.988 301.69 227.988Z" fill="#F1F2F2"/>
<path opacity="0.75" d="M511.988 368.449C511.995 393.813 505.277 418.726 492.52 440.648C479.763 462.57 461.423 480.719 439.367 493.245C435.273 495.603 431.062 497.75 426.749 499.68C428.645 498.258 430.487 496.755 432.301 495.263C448.425 481.808 461.392 464.971 470.281 445.944C479.17 426.918 483.765 406.169 483.739 385.168V287.013C493.964 308.533 502.22 330.934 508.408 353.942C509.695 358.7 510.888 363.535 511.988 368.449Z" fill="url(#paint3_linear_201_34)"/>
<path opacity="0.75" d="M488.723 65.1737C465.283 45.7586 436.256 34.3366 405.871 32.5722C403.046 32.4026 400.191 32.3148 397.324 32.3148H278.952C290.365 26.4442 302.103 21.2293 314.11 16.6957C338.241 7.65173 363.916 1.62634 389.573 1.55029C409.659 4.54044 428.883 11.7574 445.974 22.7247C463.065 33.692 477.636 48.1601 488.723 65.1737Z" fill="url(#paint4_linear_201_34)"/>
<path d="M511.988 143.551V368.449C510.877 363.536 509.683 358.7 508.408 353.942C502.22 330.934 493.964 308.533 483.739 287.013C467.621 253.028 447.045 221.343 422.555 192.795C419.942 189.44 417.123 186.252 414.114 183.248L412.481 181.61C406.731 175.514 403.063 172.145 402.537 171.694L402.478 171.636L328.77 97.9273C311.791 80.9464 289.412 70.434 265.502 68.2089C241.593 65.9837 217.658 72.1857 197.837 85.7419C215.264 71.5852 244.274 50.0576 278.952 32.3149H397.319C400.185 32.3149 403.04 32.4027 405.865 32.5723C436.25 34.3366 465.278 45.7586 488.717 65.1737C503.935 88.4824 512.021 115.725 511.982 143.562L511.988 143.551Z" fill="url(#paint5_linear_201_34)"/>
<path opacity="0.75" d="M101.472 6.26535C79.4429 18.8219 61.1261 36.981 48.3795 58.901C35.633 80.8209 28.9101 105.722 28.8927 131.079V224.788C12.4077 190.139 0.29255 150.769 3.46904 112.125C10.9193 78.9813 29.8734 49.55 56.9663 29.0565C70.3483 18.9051 85.4137 11.1902 101.472 6.26535Z" fill="url(#paint6_linear_201_34)"/>
<path d="M351.619 391.241L328.758 414.09C317.855 425.032 304.618 433.366 290.037 438.467C288.478 439.017 286.896 439.528 285.293 439.999C267.523 445.258 248.664 445.627 230.702 441.067C212.74 436.507 196.34 427.188 183.23 414.09L143.387 374.253L103.549 334.415L97.9213 328.764C92.7373 323.581 88.1174 317.863 84.139 311.706C78.2365 304.311 71.4097 295.326 64.2786 285.077C63.682 284.223 63.0853 283.361 62.4886 282.491C54.7082 271.16 46.6295 258.378 39.0364 244.561C36.1114 239.241 33.2762 233.781 30.5306 228.181C29.9807 227.058 29.4426 225.935 28.9044 224.805C26.3246 219.388 23.8559 213.86 21.5394 208.239C19.6791 203.742 17.9241 199.187 16.2745 194.573C14.6248 189.96 13.1019 185.303 11.7057 180.604C11.3606 179.434 11.0213 178.264 10.6937 177.094C4.74433 155.865 1.69654 133.898 3.48076 112.16C2.89577 114.672 2.39658 117.212 1.98319 119.782C1.76869 121.069 1.57369 122.362 1.3982 123.661C0.487456 130.252 0.0320342 136.897 0.0351724 143.551V367.25V368.42C0.0305626 387.271 3.73912 405.938 10.9491 423.355C18.1591 440.773 28.7292 456.6 42.056 469.932C55.3828 483.264 71.2052 493.841 88.6197 501.058C106.034 508.275 124.7 511.991 143.55 511.994H149.02C163.495 508.762 177.746 504.598 191.683 499.528C205.194 494.612 218.409 488.92 231.264 482.481C239.454 478.386 247.322 474.081 254.786 469.705C256.915 468.453 259.016 467.194 261.086 465.926C280.153 454.25 298.278 441.102 315.297 426.603C315.976 426.018 316.649 425.433 317.31 424.883C318.632 423.745 319.919 422.621 321.171 421.514L323.019 419.87C326.658 416.612 329.969 413.529 332.964 410.686C333.958 409.738 334.912 408.816 335.825 407.919C345.886 398.073 351.333 391.615 351.619 391.241Z" fill="url(#paint7_linear_201_34)"/>
<path opacity="0.75" d="M231.258 482.481C218.403 488.92 205.188 494.612 191.678 499.528C177.74 504.598 163.489 508.762 149.014 511.994H143.551C108.814 511.994 76.6044 500.078 52.1343 479.123C22.142 453.437 1.06481 417.98 0.00598145 372.866V371.696C4.99594 396.652 16.4617 414.857 32.584 433.313C46.04 448.776 62.6603 461.168 81.3204 469.65C99.9804 478.133 120.245 482.509 140.743 482.481H231.258Z" fill="url(#paint8_linear_201_34)"/>
<path d="M355.656 294.981C355.392 295.648 355.123 296.309 354.848 296.97C354.638 297.484 354.421 297.993 354.199 298.497C353.983 299.017 353.749 299.532 353.515 300.041C353.374 300.363 353.234 300.673 353.082 300.989C353.009 301.166 352.927 301.34 352.836 301.509C352.702 301.796 352.567 302.094 352.427 302.381C352.228 302.802 352.023 303.223 351.842 303.639C351.66 304.054 351.485 304.346 351.298 304.703C350.894 305.499 350.479 306.294 350.046 307.078C349.853 307.435 349.665 307.78 349.461 308.12C349.168 308.658 348.876 309.19 348.548 309.722C348.302 310.155 348.051 310.577 347.793 311.004C347.236 311.94 346.662 312.86 346.074 313.765L345.489 314.718C344.541 316.161 343.556 317.579 342.534 318.971C342.33 319.258 342.119 319.556 341.897 319.831C340.996 321.06 340.066 322.253 339.101 323.435L338.597 324.02C338.012 324.71 337.427 325.388 336.842 326.073C336.257 326.757 335.766 327.295 335.21 327.898C335.058 328.074 334.894 328.249 334.731 328.43C334.309 328.887 333.888 329.337 333.461 329.782C332.812 330.466 332.145 331.145 331.472 331.812C330.998 332.285 330.519 332.753 330.027 333.221L329.179 334.029C328.887 334.304 328.594 334.573 328.302 334.842C328.185 334.947 328.073 335.058 327.956 335.152C327.641 335.444 327.325 335.737 326.997 336.012C326.359 336.597 325.716 337.147 325.055 337.697L324.242 338.375L323.323 339.136C322.814 339.545 322.294 339.955 321.779 340.358C321.264 340.762 320.738 341.166 320.217 341.528C319.813 341.832 319.41 342.113 318.994 342.423C318.749 342.611 318.503 342.786 318.252 342.961C317.893 343.223 317.53 343.48 317.163 343.734C317.076 343.798 316.994 343.862 316.9 343.921L315.379 344.956L313.73 346.039C313.145 346.419 312.53 346.799 311.922 347.168C310.851 347.823 309.775 348.466 308.681 349.08L308.149 349.379C307.739 349.613 307.318 349.841 306.903 350.063C306.318 350.385 305.733 350.689 305.148 350.993C304.563 351.298 303.978 351.578 303.393 351.894C302.172 352.503 300.938 353.088 299.69 353.649C299.105 353.907 298.52 354.158 297.935 354.404C297.35 354.65 296.958 354.819 296.461 354.989C296.209 355.1 295.963 355.194 295.718 355.287C295.221 355.492 294.723 355.685 294.22 355.872C293.717 356.059 293.278 356.223 292.805 356.399L292.272 356.592C291.687 356.796 291.143 356.995 290.57 357.177L290.336 357.253L288.528 357.838C287.891 358.043 287.247 358.241 286.604 358.423L284.808 358.938L284.556 359.008C284.17 359.113 283.778 359.224 283.386 359.324L282.801 359.476L282.169 359.64C281.701 359.751 281.228 359.874 280.76 359.979C280.175 360.131 279.537 360.265 278.929 360.4L278.431 360.505C277.846 360.622 277.326 360.739 276.764 360.845C276.202 360.95 275.594 361.073 275.009 361.178L274.758 361.219C274.173 361.318 273.629 361.418 273.061 361.5C272.213 361.646 271.359 361.763 270.505 361.88C269.996 361.95 269.487 362.02 268.972 362.073C268.697 362.114 268.416 362.149 268.13 362.173C267.627 362.231 267.118 362.29 266.603 362.33H266.492C265.936 362.389 265.38 362.442 264.819 362.483C264.158 362.541 263.502 362.582 262.841 362.623C262.537 362.623 262.256 362.658 261.923 362.676C261.385 362.711 260.847 362.728 260.303 362.752C259.636 362.781 258.963 362.798 258.29 362.816H258.097C257.424 362.816 256.752 362.816 256.073 362.816C255.394 362.816 254.722 362.816 254.049 362.816H253.856C253.183 362.816 252.51 362.781 251.844 362.752C251.294 362.752 250.744 362.711 250.194 362.676C249.901 362.676 249.609 362.676 249.311 362.623C248.673 362.588 248.035 362.541 247.398 362.488C246.76 362.436 246.228 362.389 245.643 362.33H245.526C245.011 362.29 244.502 362.231 243.999 362.173C243.724 362.173 243.455 362.114 243.186 362.073C242.648 362.02 242.115 361.95 241.589 361.88C240.741 361.763 239.904 361.634 239.067 361.5C238.482 361.418 237.927 361.318 237.371 361.219C236.692 361.096 236.02 360.979 235.353 360.845C234.768 360.739 234.241 360.622 233.686 360.505L233.194 360.4C232.574 360.265 231.966 360.131 231.357 359.979C230.854 359.868 230.357 359.739 229.866 359.616C229.678 359.577 229.497 359.53 229.322 359.476L228.737 359.329L227.52 359.002L227.274 358.938L225.478 358.423C224.835 358.23 224.197 358.031 223.559 357.838L222.015 357.335C221.746 357.241 221.471 357.153 221.202 357.054C220.81 356.925 220.424 356.785 220.032 356.639C219.786 356.557 219.529 356.463 219.283 356.369L217.862 355.843C217.364 355.65 216.861 355.457 216.364 355.258C216.118 355.164 215.873 355.071 215.621 354.96C215.124 354.761 214.638 354.556 214.147 354.375C213.562 354.117 212.936 353.86 212.345 353.579C211.052 352.994 209.783 352.409 208.519 351.783C207.987 351.52 207.466 351.251 206.94 350.976C206.413 350.701 205.77 350.391 205.185 350.046C204.77 349.823 204.348 349.595 203.939 349.361L203.407 349.063C202.313 348.478 201.236 347.805 200.166 347.15C199.581 346.781 198.955 346.401 198.358 346.021L196.708 344.939L195.187 343.903C195.094 343.845 195.012 343.78 194.924 343.716C194.558 343.467 194.195 343.209 193.836 342.944C193.585 342.768 193.339 342.593 193.093 342.406C192.678 342.119 192.274 341.821 191.871 341.511C191.35 341.119 190.823 340.715 190.309 340.341C189.794 339.966 189.273 339.528 188.764 339.118L187.846 338.358L187.033 337.679C186.377 337.129 185.73 336.568 185.091 335.994C184.763 335.713 184.447 335.409 184.131 335.134C184.014 335.041 183.903 334.93 183.786 334.824C183.488 334.555 183.201 334.286 182.908 334.011L182.06 333.204C181.569 332.736 181.089 332.268 180.615 331.794C179.943 331.127 179.276 330.449 178.626 329.764C178.199 329.32 177.778 328.869 177.357 328.413C177.193 328.231 177.029 328.056 176.877 327.88C176.292 327.296 175.783 326.67 175.245 326.055C174.707 325.441 174.075 324.692 173.49 324.002L172.987 323.417C172.022 322.247 171.086 321.042 170.191 319.814C169.969 319.533 169.758 319.229 169.553 318.954C168.535 317.561 167.551 316.144 166.599 314.701L165.985 313.747C165.396 312.838 164.823 311.918 164.265 310.986C164.008 310.559 163.756 310.138 163.51 309.705C163.194 309.173 162.89 308.64 162.598 308.102C162.399 307.763 162.212 307.418 162.013 307.061C161.58 306.277 161.164 305.481 160.761 304.686C160.574 304.329 160.398 303.978 160.217 303.621C160.035 303.264 159.801 302.784 159.603 302.363C159.462 302.071 159.328 301.778 159.193 301.492C159.102 301.323 159.02 301.149 158.947 300.971C158.795 300.655 158.655 300.345 158.514 300.023C158.28 299.514 158.046 299 157.83 298.479C157.614 297.958 157.391 297.467 157.181 296.952C156.906 296.291 156.637 295.63 156.373 294.963C167.841 310.632 182.842 323.376 200.158 332.161C217.474 340.946 236.618 345.524 256.035 345.524C275.452 345.524 294.596 340.946 311.912 332.161C329.228 323.376 344.229 310.632 355.697 294.963L355.656 294.981Z" fill="url(#paint9_linear_201_34)"/>
<path d="M156.327 217.054C156.526 216.551 156.721 216.054 156.912 215.563C156.958 215.44 157.011 215.323 157.058 215.2C157.508 214.112 157.965 213.041 158.456 211.971L158.702 211.433C158.965 210.848 159.234 210.292 159.503 209.724C159.772 209.157 160.088 208.554 160.381 207.969C160.966 206.799 161.592 205.629 162.235 204.46C162.545 203.875 162.861 203.336 163.177 202.781C163.177 202.751 163.212 202.716 163.235 202.687C163.551 202.102 163.879 201.576 164.212 201.026C164.546 200.476 164.85 199.979 165.166 199.458L165.248 199.341C165.938 198.218 166.663 197.118 167.406 196.024L168.53 194.398C168.851 193.947 169.167 193.497 169.495 193.058L169.723 192.748C170.103 192.227 170.483 191.718 170.893 191.215C171.302 190.712 171.688 190.168 172.104 189.659C172.519 189.15 172.923 188.63 173.338 188.121C173.382 188.078 173.421 188.031 173.455 187.98C173.835 187.53 174.21 187.074 174.625 186.623V186.594C174.906 186.261 175.21 185.933 175.485 185.599C175.637 185.418 175.795 185.231 175.959 185.055C176.38 184.587 176.795 184.119 177.222 183.663C177.649 183.207 178.112 182.698 178.568 182.224C179.024 181.75 179.48 181.282 179.943 180.814C180.405 180.346 180.803 179.943 181.241 179.516L181.475 179.293C181.902 178.878 182.324 178.468 182.756 178.065C183.189 177.661 183.628 177.252 184.073 176.848C184.605 176.368 185.143 175.895 185.681 175.421C186.108 175.04 186.541 174.672 186.974 174.309L187.179 174.134C188.185 173.285 189.203 172.461 190.244 171.653C190.759 171.25 191.286 170.852 191.806 170.454C192.157 170.191 192.502 169.928 192.853 169.676L193.035 169.547C193.245 169.384 193.456 169.231 193.678 169.079L195.006 168.138L195.129 168.056C195.632 167.705 196.135 167.365 196.644 167.026C197.153 166.687 197.744 166.301 198.294 165.944C198.844 165.587 199.411 165.236 199.973 164.891C200.889 164.325 201.817 163.772 202.757 163.229C203.541 162.779 204.325 162.34 205.097 161.907C205.653 161.609 206.214 161.322 206.776 161.024C207.338 160.726 208.005 160.392 208.63 160.082L210.421 159.216C210.924 158.982 211.427 158.748 211.93 158.526C212.123 158.433 212.31 158.345 212.515 158.263L214.077 157.584C214.691 157.321 215.305 157.064 215.925 156.818C216.545 156.572 217.165 156.321 217.791 156.081L219.213 155.549L219.962 155.28L221.132 154.87L222.033 154.566C222.454 154.414 222.887 154.279 223.314 154.139C224.022 153.916 224.724 153.694 225.437 153.484C226.022 153.302 226.607 153.133 227.233 152.963L227.479 152.899L228.696 152.577C228.883 152.518 229.07 152.477 229.281 152.425C229.491 152.372 229.673 152.319 229.866 152.279C230.339 152.15 230.825 152.039 231.305 151.922C231.784 151.805 232.323 151.682 232.831 151.577C233.656 151.395 234.475 151.226 235.3 151.062C235.885 150.945 236.47 150.834 237.055 150.728C238.564 150.459 240.085 150.219 241.618 150.02C242.092 149.95 242.572 149.892 243.045 149.833L243.712 149.757C243.846 149.735 243.981 149.721 244.116 149.716C244.549 149.658 244.97 149.617 245.403 149.576H245.69C246.228 149.517 246.766 149.471 247.31 149.424L249.235 149.289L250.13 149.242C250.674 149.207 251.218 149.184 251.762 149.166C252.434 149.166 253.107 149.114 253.78 149.102H253.973C254.646 149.102 255.318 149.102 255.997 149.102C256.676 149.102 257.348 149.102 258.021 149.102H258.208C258.881 149.102 259.554 149.137 260.226 149.166C260.765 149.166 261.297 149.207 261.835 149.242L262.76 149.289C263.432 149.336 264.099 149.377 264.76 149.435C265.275 149.476 265.784 149.517 266.299 149.576H266.585C267.018 149.617 267.439 149.658 267.872 149.716C268.008 149.721 268.142 149.735 268.276 149.757L268.978 149.833L270.329 150.015C271.889 150.221 273.422 150.459 274.927 150.728L276.682 151.062C278.075 151.337 279.461 151.647 280.836 151.968C281.228 152.05 281.62 152.15 282.006 152.249L282.702 152.425C284.702 152.943 286.684 153.515 288.645 154.139C289.072 154.279 289.505 154.414 289.926 154.566L290.827 154.87C291.225 155.005 291.617 155.139 291.997 155.28C292.728 155.537 293.448 155.806 294.173 156.081C294.793 156.321 295.408 156.561 296.016 156.812L296.402 156.964C296.899 157.163 297.391 157.368 297.882 157.584C298.374 157.801 298.836 157.994 299.304 158.204C302.307 159.538 305.232 161.003 308.079 162.598L309.202 163.229C310.764 164.125 312.291 165.061 313.8 166.032C314.309 166.353 314.818 166.687 315.321 167.026C315.993 167.471 316.655 167.927 317.31 168.389C317.626 168.606 317.93 168.816 318.234 169.044C318.538 169.272 318.702 169.378 318.924 169.547C319.884 170.245 320.831 170.959 321.767 171.688C322.27 172.075 322.773 172.478 323.265 172.858C324.899 174.177 326.486 175.542 328.027 176.953C328.424 177.316 328.811 177.673 329.197 178.041C329.583 178.41 330.051 178.855 330.478 179.27C331.466 180.223 332.437 181.206 333.403 182.195C333.859 182.669 334.309 183.148 334.748 183.634C335.187 184.119 335.596 184.558 336.012 185.026L336.491 185.57C336.784 185.904 337.076 186.231 337.346 186.565C337.346 186.565 337.346 186.565 337.346 186.594C337.738 187.044 338.118 187.501 338.516 187.951C338.551 188.001 338.59 188.047 338.633 188.092C339.048 188.6 339.457 189.115 339.867 189.63C340.276 190.145 340.686 190.665 341.078 191.186C341.47 191.707 341.844 192.198 342.248 192.719C342.33 192.818 342.4 192.924 342.476 193.029C342.803 193.468 343.119 193.918 343.441 194.368L344.564 195.995C345.307 197.089 346.033 198.188 346.723 199.312L346.805 199.429C347.121 199.949 347.442 200.47 347.758 200.996C348.074 201.523 348.419 202.096 348.735 202.658C348.735 202.687 348.77 202.722 348.794 202.751C349.11 203.307 349.426 203.869 349.736 204.43C350.379 205.6 350.993 206.77 351.59 207.94C351.888 208.525 352.175 209.11 352.468 209.695C352.76 210.28 353.006 210.83 353.269 211.403L353.515 211.942C354.006 213.012 354.462 214.083 354.913 215.171C354.96 215.294 355.012 215.41 355.059 215.533L355.644 217.025C344.179 201.35 329.179 188.599 311.861 179.81C294.544 171.021 275.397 166.44 255.977 166.44C236.556 166.44 217.409 171.021 200.092 179.81C182.774 188.599 167.774 201.35 156.309 217.025L156.327 217.054Z" fill="url(#paint10_linear_201_34)"/>
<path d="M389.579 1.55028C363.916 1.62633 338.24 7.65171 314.115 16.6956C302.109 21.2293 290.37 26.4442 278.958 32.3148C244.274 50.0634 215.264 71.5851 197.837 85.7419C197.837 85.7419 197.837 85.7419 197.802 85.7419C192.595 89.3301 187.725 93.3852 183.253 97.857L180.329 100.782L180.159 100.94L97.9211 183.23C81.3008 199.849 70.8692 221.657 68.3608 245.026C65.8524 268.396 71.4182 291.92 84.133 311.688C68.3909 291.968 46.1087 260.94 28.8983 224.788V131.078C28.9151 105.722 35.6372 80.8218 48.3827 58.9019C61.1282 36.982 79.4438 18.8226 101.472 6.26529C115.109 2.09883 129.291 -0.012759 143.55 5.79976e-05H368.443C375.517 -0.00622472 382.582 0.511936 389.579 1.55028Z" fill="url(#paint11_linear_201_34)"/>
<path d="M483.739 287.013V385.139C483.765 406.14 479.17 426.889 470.281 445.915C461.392 464.942 448.425 481.779 432.301 495.234C430.487 496.755 428.645 498.229 426.749 499.651C408.398 507.817 388.53 512.023 368.443 511.994H149.014C163.489 508.762 177.74 504.598 191.677 499.528C205.188 494.612 218.403 488.92 231.258 482.481C306.359 444.925 350.712 392.329 351.619 391.223L414.09 328.764C431.829 311.025 442.479 287.418 444.038 262.38C445.597 237.342 437.957 212.597 422.555 192.795C447.045 221.343 467.621 253.028 483.739 287.013Z" fill="url(#paint12_linear_201_34)"/>
<path d="M362.921 252.154C362.921 251.873 362.921 251.598 362.886 251.317C362.851 251.036 362.886 250.767 362.851 250.498C362.851 250.036 362.799 249.586 362.775 249.129C362.752 248.673 362.722 248.351 362.693 247.959C362.658 247.433 362.617 246.924 362.565 246.403C362.512 245.883 362.483 245.508 362.442 245.052C362.401 244.596 362.348 244.157 362.29 243.706L362.184 242.782C362.056 241.747 361.915 240.723 361.757 239.699C361.623 238.839 361.482 237.979 361.336 237.125C361.248 236.663 361.166 236.201 361.079 235.745C360.932 234.99 360.78 234.241 360.622 233.492C360.626 233.475 360.626 233.457 360.622 233.44C360.459 232.638 360.277 231.849 360.084 231.053C359.891 230.257 359.698 229.456 359.499 228.66C359.3 227.865 359.078 227.075 358.85 226.32C358.622 225.566 358.388 224.747 358.142 223.981C357.896 223.214 357.662 222.465 357.405 221.717C357.407 221.697 357.407 221.678 357.405 221.658C357.159 220.927 356.902 220.207 356.644 219.482C356.644 219.4 356.586 219.324 356.557 219.242C356.288 218.523 356.018 217.797 355.738 217.084L355.153 215.592C355.106 215.469 355.053 215.352 355.006 215.229C354.819 214.773 354.638 214.328 354.421 213.889C354.076 213.076 353.714 212.263 353.339 211.462C353.076 210.877 352.807 210.321 352.538 209.754C352.269 209.186 351.953 208.584 351.66 207.999C351.368 207.414 351.075 206.829 350.754 206.244C350.449 205.659 350.133 205.074 349.818 204.524C349.502 203.974 349.157 203.354 348.817 202.769C348.478 202.184 348.174 201.657 347.84 201.107C347.507 200.558 347.203 200.06 346.887 199.54C346.862 199.499 346.834 199.46 346.805 199.423C346.46 198.838 346.109 198.311 345.746 197.756C345.383 197.2 345.015 196.65 344.646 196.106L343.523 194.48L343.038 193.807C342.786 193.444 342.523 193.081 342.254 192.73C341.903 192.245 341.546 191.765 341.183 191.297C340.821 190.829 340.388 190.256 339.972 189.741C339.557 189.226 339.153 188.712 338.738 188.203L338.621 188.062C338.247 187.612 337.866 187.155 337.451 186.705C337.451 186.705 337.451 186.705 337.451 186.676C337.176 186.348 336.901 186.032 336.62 185.705C336.035 185.038 335.45 184.389 334.865 183.745L334.198 183.02C333.028 181.776 331.833 180.559 330.612 179.369C330.185 178.954 329.764 178.544 329.331 178.141C328.898 177.737 328.606 177.462 328.237 177.129C324.236 173.467 319.961 170.115 315.45 167.102C314.946 166.763 314.438 166.429 313.929 166.108C313.145 165.605 312.349 165.107 311.559 164.616C310.77 164.125 310.085 163.733 309.331 163.306L308.207 162.674C306.784 161.87 305.339 161.104 303.873 160.375C302.439 159.655 300.977 158.965 299.503 158.316C297.748 157.526 295.917 156.771 294.08 156.081C293.676 155.923 293.273 155.777 292.863 155.625L292.12 155.356C291.757 155.221 291.395 155.092 291.02 154.969C287.715 153.827 284.355 152.851 280.953 152.044C280.368 151.898 279.783 151.758 279.157 151.629C278.929 151.576 278.701 151.524 278.467 151.483L277.01 151.179L276.682 151.114L275.021 150.804C274.319 150.681 273.623 150.564 272.921 150.459C272.833 150.435 272.743 150.417 272.652 150.407C272.114 150.33 271.575 150.243 271.037 150.173L270.388 150.079L269.323 149.857C268.99 149.81 268.65 149.769 268.311 149.734L267.779 149.675C267.504 149.64 267.235 149.611 266.96 149.588C266.059 149.494 265.152 149.418 264.245 149.342C263.801 149.307 263.339 149.283 262.888 149.254C262.017 149.196 261.133 149.149 260.262 149.12L258.782 149.067H258.05C257.378 149.067 256.717 149.067 256.032 149.067C255.354 149.067 254.687 149.067 254.014 149.067H253.271L251.803 149.12C250.217 149.172 248.632 149.272 247.064 149.406C246.614 149.435 246.175 149.476 245.731 149.529C242.806 149.798 239.939 150.196 237.096 150.699C236.511 150.804 235.926 150.915 235.341 151.032C234.844 151.12 234.347 151.231 233.849 151.337L232.873 151.547C231.486 151.846 230.111 152.185 228.748 152.548L227.532 152.869C226.49 153.158 225.455 153.46 224.425 153.776L223.366 154.109C222.939 154.25 222.507 154.384 222.085 154.537L221.184 154.841L220.014 155.25L219.266 155.519L217.85 156.052C217.224 156.286 216.604 156.531 215.984 156.789C215.364 157.046 214.75 157.292 214.135 157.555L212.679 158.187C212.451 158.28 212.228 158.386 212 158.497C211.497 158.719 210.994 158.953 210.491 159.187L208.701 160.053C208.075 160.363 207.461 160.673 206.846 160.995C206.232 161.317 205.723 161.58 205.167 161.878C204.366 162.311 203.582 162.75 202.827 163.2L201.429 164.019L200.043 164.862C199.458 165.207 198.914 165.552 198.364 165.915C197.814 166.277 197.258 166.628 196.714 166.997C196.17 167.365 195.702 167.675 195.199 168.026L195.076 168.108L193.748 169.05C193.392 169.302 193.046 169.553 192.707 169.811C192.368 170.068 192.151 170.22 191.876 170.425C191.356 170.823 190.829 171.22 190.315 171.624C189.8 172.028 189.279 172.437 188.77 172.847C188.261 173.256 187.752 173.683 187.249 174.104C187.179 174.163 187.103 174.221 187.044 174.28C186.612 174.643 186.179 175.011 185.752 175.391C185.208 175.854 184.675 176.339 184.143 176.819C183.698 177.222 183.265 177.626 182.827 178.036C182.388 178.445 181.973 178.849 181.546 179.264L181.312 179.486C180.875 179.915 180.442 180.348 180.013 180.785C179.545 181.253 179.083 181.727 178.638 182.201C178.194 182.674 177.737 183.154 177.293 183.64C176.848 184.125 176.45 184.564 176.029 185.032C175.608 185.5 175.117 186.067 174.672 186.6C174.473 186.822 174.292 187.05 174.087 187.278C173.882 187.506 173.625 187.822 173.397 188.097C172.981 188.606 172.572 189.121 172.162 189.636C171.753 190.151 171.343 190.671 170.951 191.192C170.56 191.713 170.232 192.14 169.881 192.625C169.612 192.976 169.349 193.339 169.097 193.702L168.611 194.374L167.488 196.001C167.114 196.545 166.751 197.1 166.389 197.65C166.026 198.2 165.675 198.756 165.33 199.317C165.3 199.355 165.273 199.394 165.248 199.434C164.932 199.955 164.61 200.476 164.294 201.002C163.978 201.529 163.633 202.102 163.317 202.664C163.001 203.225 162.645 203.834 162.317 204.419C161.989 205.004 161.685 205.588 161.381 206.138C161.077 206.723 160.796 207.308 160.474 207.893C160.153 208.478 159.889 209.063 159.597 209.648C159.304 210.233 159.059 210.783 158.795 211.356C158.421 212.158 158.058 212.971 157.713 213.784C157.52 214.223 157.339 214.668 157.128 215.124C157.081 215.247 157.029 215.364 156.982 215.487C156.783 215.978 156.588 216.475 156.397 216.978C155.812 218.487 155.227 220.008 154.73 221.553C154.727 221.572 154.727 221.592 154.73 221.611C154.484 222.36 154.232 223.121 153.993 223.875C153.753 224.63 153.513 225.431 153.285 226.215C153.057 226.999 152.84 227.789 152.635 228.555C152.431 229.321 152.22 230.152 152.05 230.948C151.881 231.743 151.676 232.533 151.512 233.335C151.509 233.352 151.509 233.37 151.512 233.387C151.354 234.136 151.202 234.885 151.056 235.639C150.617 237.95 150.243 240.319 149.95 242.659L149.845 243.584C149.81 243.87 149.781 244.169 149.751 244.438C149.705 244.853 149.658 245.268 149.623 245.689C149.553 246.397 149.494 247.111 149.441 247.836C149.412 248.176 149.389 248.521 149.371 248.866C149.319 249.638 149.278 250.41 149.248 251.206C149.248 251.487 149.248 251.762 149.213 252.042C149.166 253.318 149.143 254.599 149.143 255.886C149.143 257.179 149.143 258.46 149.213 259.741C149.213 260.004 149.213 260.273 149.243 260.531C149.272 260.788 149.272 261.116 149.283 261.391C149.283 261.87 149.336 262.344 149.371 262.818C149.406 263.292 149.412 263.59 149.447 263.988C149.494 264.698 149.553 265.4 149.623 266.094C149.658 266.515 149.705 266.93 149.751 267.34C149.781 267.627 149.81 267.925 149.845 268.182C149.88 268.44 149.921 268.873 149.962 269.212C150.032 269.762 150.102 270.317 150.184 270.862C150.225 271.177 150.266 271.499 150.319 271.815C150.401 272.4 150.494 272.985 150.594 273.57C150.728 274.395 150.875 275.208 151.027 276.021C151.027 276.068 151.027 276.115 151.056 276.162C151.173 276.799 151.302 277.437 151.442 278.069C151.489 278.303 151.542 278.542 151.594 278.776C151.711 279.361 151.846 279.946 151.986 280.531C152.22 281.532 152.472 282.515 152.735 283.497C152.881 284.082 153.039 284.632 153.197 285.2C153.197 285.235 153.197 285.276 153.238 285.311C153.308 285.568 153.378 285.814 153.454 286.071C153.647 286.721 153.846 287.37 154.039 288.025C154.232 288.68 154.472 289.353 154.695 290.02L154.888 290.57C155.11 291.254 155.35 291.927 155.601 292.6C155.611 292.634 155.622 292.667 155.636 292.699C155.865 293.325 156.099 293.951 156.344 294.571C156.385 294.676 156.426 294.793 156.473 294.899C164.323 314.936 178.03 332.141 195.807 344.269C213.583 356.397 234.603 362.884 256.123 362.884C277.643 362.884 298.662 356.397 316.439 344.269C334.216 332.141 347.923 314.936 355.773 294.899C355.831 294.764 355.878 294.624 355.937 294.489C356.1 294.08 356.258 293.664 356.405 293.249C356.551 292.834 356.709 292.43 356.861 292.015C357.013 291.599 357.177 291.126 357.323 290.681C357.405 290.459 357.481 290.236 357.551 290.02C357.779 289.353 357.99 288.698 358.201 288.025C358.411 287.352 358.598 286.721 358.785 286.071C358.862 285.814 358.932 285.568 359.002 285.311C359.002 285.276 359.002 285.235 359.043 285.2C359.201 284.615 359.359 284.065 359.505 283.497C359.768 282.515 360.02 281.532 360.248 280.531C360.394 279.946 360.529 279.361 360.646 278.776C360.698 278.542 360.751 278.303 360.798 278.069C360.938 277.437 361.067 276.799 361.184 276.162C361.181 276.115 361.181 276.068 361.184 276.021C361.506 274.319 361.769 272.599 362.026 270.873C362.102 270.329 362.178 269.773 362.249 269.224C362.29 268.884 362.331 268.539 362.366 268.194C362.424 267.749 362.471 267.299 362.518 266.849C362.565 266.398 362.605 265.953 362.641 265.497C362.676 265.041 362.728 264.503 362.763 264C362.834 263.14 362.886 262.286 362.927 261.414C362.927 261.127 362.927 260.829 362.968 260.554C363.009 260.279 362.968 260.028 362.997 259.764C363.044 258.483 363.068 257.202 363.068 255.909C363.068 254.616 362.951 253.429 362.921 252.154ZM243.315 288.177C242.794 287.961 242.273 287.744 241.764 287.516C240.998 287.171 240.249 286.791 239.512 286.399C239.027 286.136 238.541 285.855 238.067 285.568L237.365 285.129C237.131 284.977 236.897 284.831 236.675 284.673C236.219 284.363 235.774 284.041 235.324 283.714C232.66 281.721 230.297 279.357 228.304 276.694C227.97 276.249 227.649 275.805 227.339 275.343L226.882 274.646L226.443 273.944C226.163 273.471 225.858 272.991 225.619 272.5C225.215 271.762 224.835 271.014 224.495 270.247C224.261 269.738 224.045 269.224 223.84 268.697C223.501 267.831 223.185 266.942 222.928 266.059C220.915 259.432 220.94 252.354 222.998 245.742C223.244 244.929 223.524 244.128 223.84 243.344C224.045 242.817 224.261 242.302 224.495 241.799C224.835 241.027 225.215 240.272 225.619 239.541C226.022 238.81 226.438 238.085 226.888 237.388C227.339 236.692 227.812 236.008 228.315 235.347C229.304 234.012 230.393 232.754 231.574 231.585C235.125 228.023 239.411 225.28 244.134 223.548C244.397 223.448 244.666 223.355 244.923 223.273C252.668 220.663 261.085 220.871 268.691 223.858C269.212 224.057 269.733 224.279 270.236 224.501C270.487 224.612 270.745 224.735 270.99 224.852C271.493 225.092 271.991 225.349 272.482 225.619C272.728 225.747 272.968 225.882 273.202 226.016C273.447 226.151 273.687 226.291 273.921 226.432C274.395 226.724 274.863 227.017 275.319 227.333L275.998 227.801C277.123 228.606 278.201 229.475 279.227 230.404C279.432 230.585 279.631 230.778 279.812 230.959L280.397 231.544L280.602 231.755C281.04 232.2 281.473 232.662 281.889 233.13L282.093 233.358L282.175 233.457C282.511 233.847 282.833 234.237 283.141 234.627C283.439 235.008 283.726 235.394 284.006 235.797C284.047 235.862 284.094 235.92 284.135 235.973C284.176 236.025 284.135 235.973 284.135 235.973C284.293 236.195 284.445 236.423 284.603 236.651C284.656 236.727 284.703 236.809 284.761 236.885C285.013 237.266 285.252 237.658 285.498 238.055C285.639 238.289 285.779 238.529 285.913 238.769C286.048 239.003 286.183 239.243 286.311 239.494C286.58 239.98 286.832 240.477 287.072 240.974C287.434 241.729 287.774 242.495 288.078 243.285C288.283 243.8 288.476 244.332 288.663 244.865C291.179 252.332 291.083 260.432 288.388 267.837C288.113 268.563 287.803 269.276 287.51 269.984L287.317 270.411C287.119 270.838 286.92 271.265 286.732 271.681C286.218 272.675 285.662 273.634 285.071 274.57C284.65 275.218 284.211 275.85 283.755 276.466L283.462 276.858C283.234 277.156 283 277.443 282.76 277.741C282.673 277.858 282.579 277.969 282.485 278.08C282.17 278.455 281.859 278.829 281.538 279.18C281.157 279.59 280.777 279.993 280.368 280.379C279.195 281.553 277.94 282.642 276.612 283.638C276.39 283.807 276.173 283.965 275.945 284.123L275.659 284.322C275.39 284.509 275.12 284.702 274.84 284.872C274.559 285.042 274.196 285.293 273.863 285.498L273.518 285.703C273.155 285.919 272.786 286.136 272.418 286.334C271.687 286.726 270.932 287.107 270.16 287.452C269.645 287.686 269.13 287.902 268.615 288.113C267.75 288.44 266.86 288.756 265.971 289.025C259.345 291.023 252.273 290.998 245.66 288.955C244.9 288.762 244.104 288.499 243.315 288.177ZM301.691 227.988C298.352 227.989 295.088 227 292.312 225.146C289.536 223.292 287.372 220.656 286.094 217.572C284.816 214.488 284.481 211.094 285.132 207.82C285.783 204.545 287.39 201.538 289.751 199.177C292.112 196.816 295.119 195.209 298.394 194.558C301.668 193.907 305.062 194.242 308.146 195.52C311.23 196.798 313.866 198.962 315.72 201.738C317.574 204.514 318.563 207.778 318.562 211.117C318.562 215.591 316.784 219.882 313.62 223.046C310.456 226.21 306.165 227.988 301.691 227.988Z" fill="url(#paint13_linear_201_34)"/>
<path opacity="0.09" d="M362.921 252.154C362.921 251.873 362.921 251.598 362.886 251.317C362.851 251.036 362.886 250.767 362.851 250.498C362.851 250.036 362.799 249.586 362.775 249.129C362.752 248.673 362.722 248.351 362.693 247.959C362.658 247.433 362.617 246.924 362.565 246.403C362.512 245.883 362.483 245.508 362.442 245.052C362.401 244.596 362.348 244.157 362.29 243.706L362.184 242.782C362.056 241.747 361.915 240.723 361.757 239.699C361.623 238.839 361.482 237.979 361.336 237.125C361.248 236.663 361.166 236.201 361.079 235.745C360.932 234.99 360.78 234.241 360.622 233.492C360.626 233.475 360.626 233.457 360.622 233.44C360.459 232.638 360.277 231.849 360.084 231.053C359.891 230.257 359.698 229.456 359.499 228.66C359.3 227.865 359.078 227.075 358.85 226.32C358.622 225.566 358.388 224.747 358.142 223.981C357.896 223.214 357.662 222.465 357.405 221.717C357.407 221.697 357.407 221.678 357.405 221.658C357.159 220.927 356.902 220.207 356.644 219.482C356.644 219.4 356.586 219.324 356.557 219.242C356.288 218.523 356.018 217.797 355.738 217.084L355.153 215.592C355.106 215.469 355.053 215.352 355.006 215.229C354.819 214.773 354.638 214.328 354.421 213.889C354.076 213.076 353.714 212.263 353.339 211.462C353.076 210.877 352.807 210.321 352.538 209.754C352.269 209.186 351.953 208.584 351.66 207.999C351.368 207.414 351.075 206.829 350.754 206.244C350.449 205.659 350.133 205.074 349.818 204.524C349.502 203.974 349.157 203.354 348.817 202.769C348.478 202.184 348.174 201.657 347.84 201.107C347.507 200.558 347.203 200.06 346.887 199.54C346.862 199.499 346.834 199.46 346.805 199.423C346.46 198.838 346.109 198.311 345.746 197.756C345.383 197.2 345.015 196.65 344.646 196.106L343.523 194.48L343.038 193.807C342.786 193.444 342.523 193.081 342.254 192.73C341.903 192.245 341.546 191.765 341.183 191.297C340.821 190.829 340.388 190.256 339.972 189.741C339.557 189.226 339.153 188.712 338.738 188.203L338.621 188.062C338.247 187.612 337.866 187.155 337.451 186.705C337.451 186.705 337.451 186.705 337.451 186.676C337.176 186.348 336.901 186.032 336.62 185.705C336.035 185.038 335.45 184.389 334.865 183.745L334.198 183.02C333.028 181.776 331.833 180.559 330.612 179.369C330.185 178.954 329.764 178.544 329.331 178.141C328.898 177.737 328.606 177.462 328.237 177.129C324.236 173.467 319.961 170.115 315.45 167.102C314.946 166.763 314.438 166.429 313.929 166.108C313.145 165.605 312.349 165.107 311.559 164.616C310.77 164.125 310.085 163.733 309.331 163.306L308.207 162.674C306.784 161.87 305.339 161.104 303.873 160.375C302.439 159.655 300.977 158.965 299.503 158.316C297.748 157.526 295.917 156.771 294.08 156.081C293.676 155.923 293.273 155.777 292.863 155.625L292.12 155.356C291.757 155.221 291.395 155.092 291.02 154.969C287.715 153.827 284.355 152.851 280.953 152.044C280.368 151.898 279.783 151.758 279.157 151.629C278.929 151.576 278.701 151.524 278.467 151.483L277.01 151.179L276.682 151.114L275.021 150.804C274.319 150.681 273.623 150.564 272.921 150.459C272.833 150.435 272.743 150.417 272.652 150.407C272.114 150.33 271.575 150.243 271.037 150.173L270.388 150.079L269.323 149.857C268.99 149.81 268.65 149.769 268.311 149.734L267.779 149.675C267.504 149.64 267.235 149.611 266.96 149.588C266.059 149.494 265.152 149.418 264.245 149.342C263.801 149.307 263.339 149.283 262.888 149.254C262.017 149.196 261.133 149.149 260.262 149.12L258.782 149.067H258.05C257.378 149.067 256.717 149.067 256.032 149.067C255.354 149.067 254.687 149.067 254.014 149.067H253.271L251.803 149.12C250.217 149.172 248.632 149.272 247.064 149.406C246.614 149.435 246.175 149.476 245.731 149.529C242.806 149.798 239.939 150.196 237.096 150.699C236.511 150.804 235.926 150.915 235.341 151.032C234.844 151.12 234.347 151.231 233.849 151.337L232.873 151.547C231.486 151.846 230.111 152.185 228.748 152.548L227.532 152.869C226.49 153.158 225.455 153.46 224.425 153.776L223.366 154.109C222.939 154.25 222.507 154.384 222.085 154.537L221.184 154.841L220.014 155.25L219.266 155.519L217.85 156.052C217.224 156.286 216.604 156.531 215.984 156.789C215.364 157.046 214.75 157.292 214.135 157.555L212.679 158.187C212.451 158.28 212.228 158.386 212 158.497C211.497 158.719 210.994 158.953 210.491 159.187L208.701 160.053C208.075 160.363 207.461 160.673 206.846 160.995C206.232 161.317 205.723 161.58 205.167 161.878C204.366 162.311 203.582 162.75 202.827 163.2L201.429 164.019L200.043 164.862C199.458 165.207 198.914 165.552 198.364 165.915C197.814 166.277 197.258 166.628 196.714 166.997C196.17 167.365 195.702 167.675 195.199 168.026L195.076 168.108L193.748 169.05C193.392 169.302 193.046 169.553 192.707 169.811C192.368 170.068 192.151 170.22 191.876 170.425C191.356 170.823 190.829 171.22 190.315 171.624C189.8 172.028 189.279 172.437 188.77 172.847C188.261 173.256 187.752 173.683 187.249 174.104C187.179 174.163 187.103 174.221 187.044 174.28C186.612 174.643 186.179 175.011 185.752 175.391C185.208 175.854 184.675 176.339 184.143 176.819C183.698 177.222 183.265 177.626 182.827 178.036C182.388 178.445 181.973 178.849 181.546 179.264L181.312 179.486C180.875 179.915 180.442 180.348 180.013 180.785C179.545 181.253 179.083 181.727 178.638 182.201C178.194 182.674 177.737 183.154 177.293 183.64C176.848 184.125 176.45 184.564 176.029 185.032C175.608 185.5 175.117 186.067 174.672 186.6C174.473 186.822 174.292 187.05 174.087 187.278C173.882 187.506 173.625 187.822 173.397 188.097C172.981 188.606 172.572 189.121 172.162 189.636C171.753 190.151 171.343 190.671 170.951 191.192C170.56 191.713 170.232 192.14 169.881 192.625C169.612 192.976 169.349 193.339 169.097 193.702L168.611 194.374L167.488 196.001C167.114 196.545 166.751 197.1 166.389 197.65C166.026 198.2 165.675 198.756 165.33 199.317C165.3 199.355 165.273 199.394 165.248 199.434C164.932 199.955 164.61 200.476 164.294 201.002C163.978 201.529 163.633 202.102 163.317 202.664C163.001 203.225 162.645 203.834 162.317 204.419C161.989 205.004 161.685 205.588 161.381 206.138C161.077 206.723 160.796 207.308 160.474 207.893C160.153 208.478 159.889 209.063 159.597 209.648C159.304 210.233 159.059 210.783 158.795 211.356C158.421 212.158 158.058 212.971 157.713 213.784C157.52 214.223 157.339 214.668 157.128 215.124C157.081 215.247 157.029 215.364 156.982 215.487C156.783 215.978 156.588 216.475 156.397 216.978C155.812 218.487 155.227 220.008 154.73 221.553C154.727 221.572 154.727 221.592 154.73 221.611C154.484 222.36 154.232 223.121 153.993 223.875C153.753 224.63 153.513 225.431 153.285 226.215C153.057 226.999 152.84 227.789 152.635 228.555C152.431 229.321 152.22 230.152 152.05 230.948C151.881 231.743 151.676 232.533 151.512 233.335C151.509 233.352 151.509 233.37 151.512 233.387C151.354 234.136 151.202 234.885 151.056 235.639C150.617 237.95 150.243 240.319 149.95 242.659L149.845 243.584C149.81 243.87 149.781 244.169 149.751 244.438C149.705 244.853 149.658 245.268 149.623 245.689C149.553 246.397 149.494 247.111 149.441 247.836C149.412 248.176 149.389 248.521 149.371 248.866C149.319 249.638 149.278 250.41 149.248 251.206C149.248 251.487 149.248 251.762 149.213 252.042C149.166 253.318 149.143 254.599 149.143 255.886C149.143 257.179 149.143 258.46 149.213 259.741C149.213 260.004 149.213 260.273 149.243 260.531C149.272 260.788 149.272 261.116 149.283 261.391C149.283 261.87 149.336 262.344 149.371 262.818C149.406 263.292 149.412 263.59 149.447 263.988C149.494 264.698 149.553 265.4 149.623 266.094C149.658 266.515 149.705 266.93 149.751 267.34C149.781 267.627 149.81 267.925 149.845 268.182C149.88 268.44 149.921 268.873 149.962 269.212C150.032 269.762 150.102 270.317 150.184 270.862C150.225 271.177 150.266 271.499 150.319 271.815C150.401 272.4 150.494 272.985 150.594 273.57C150.728 274.395 150.875 275.208 151.027 276.021C151.027 276.068 151.027 276.115 151.056 276.162C151.173 276.799 151.302 277.437 151.442 278.069C151.489 278.303 151.542 278.542 151.594 278.776C151.711 279.361 151.846 279.946 151.986 280.531C152.22 281.532 152.472 282.515 152.735 283.497C152.881 284.082 153.039 284.632 153.197 285.2C153.197 285.235 153.197 285.276 153.238 285.311C153.308 285.568 153.378 285.814 153.454 286.071C153.647 286.721 153.846 287.37 154.039 288.025C154.232 288.68 154.472 289.353 154.695 290.02L154.888 290.57C155.11 291.254 155.35 291.927 155.601 292.6C155.611 292.634 155.622 292.667 155.636 292.699C155.865 293.325 156.099 293.951 156.344 294.571C156.385 294.676 156.426 294.793 156.473 294.899C164.323 314.936 178.03 332.141 195.807 344.269C213.583 356.397 234.603 362.884 256.123 362.884C277.643 362.884 298.662 356.397 316.439 344.269C334.216 332.141 347.923 314.936 355.773 294.899C355.831 294.764 355.878 294.624 355.937 294.489C356.1 294.08 356.258 293.664 356.405 293.249C356.551 292.834 356.709 292.43 356.861 292.015C357.013 291.599 357.177 291.126 357.323 290.681C357.405 290.459 357.481 290.236 357.551 290.02C357.779 289.353 357.99 288.698 358.201 288.025C358.411 287.352 358.598 286.721 358.785 286.071C358.862 285.814 358.932 285.568 359.002 285.311C359.002 285.276 359.002 285.235 359.043 285.2C359.201 284.615 359.359 284.065 359.505 283.497C359.768 282.515 360.02 281.532 360.248 280.531C360.394 279.946 360.529 279.361 360.646 278.776C360.698 278.542 360.751 278.303 360.798 278.069C360.938 277.437 361.067 276.799 361.184 276.162C361.181 276.115 361.181 276.068 361.184 276.021C361.506 274.319 361.769 272.599 362.026 270.873C362.102 270.329 362.178 269.773 362.249 269.224C362.29 268.884 362.331 268.539 362.366 268.194C362.424 267.749 362.471 267.299 362.518 266.849C362.565 266.398 362.605 265.953 362.641 265.497C362.676 265.041 362.728 264.503 362.763 264C362.834 263.14 362.886 262.286 362.927 261.414C362.927 261.127 362.927 260.829 362.968 260.554C363.009 260.279 362.968 260.028 362.997 259.764C363.044 258.483 363.068 257.202 363.068 255.909C363.068 254.616 362.951 253.429 362.921 252.154ZM243.315 288.177C242.794 287.961 242.273 287.744 241.764 287.516C240.998 287.171 240.249 286.791 239.512 286.399C239.027 286.136 238.541 285.855 238.067 285.568L237.365 285.129C237.131 284.977 236.897 284.831 236.675 284.673C236.219 284.363 235.774 284.041 235.324 283.714C232.66 281.721 230.297 279.357 228.304 276.694C227.97 276.249 227.649 275.805 227.339 275.343L226.882 274.646L226.443 273.944C226.163 273.471 225.858 272.991 225.619 272.5C225.215 271.762 224.835 271.014 224.495 270.247C224.261 269.738 224.045 269.224 223.84 268.697C223.501 267.831 223.185 266.942 222.928 266.059C220.915 259.432 220.94 252.354 222.998 245.742C223.244 244.929 223.524 244.128 223.84 243.344C224.045 242.817 224.261 242.302 224.495 241.799C224.835 241.027 225.215 240.272 225.619 239.541C226.022 238.81 226.438 238.085 226.888 237.388C227.339 236.692 227.812 236.008 228.315 235.347C229.304 234.012 230.393 232.754 231.574 231.585C235.125 228.023 239.411 225.28 244.134 223.548C244.397 223.448 244.666 223.355 244.923 223.273C252.668 220.663 261.085 220.871 268.691 223.858C269.212 224.057 269.733 224.279 270.236 224.501C270.487 224.612 270.745 224.735 270.99 224.852C271.493 225.092 271.991 225.349 272.482 225.619C272.728 225.747 272.968 225.882 273.202 226.016C273.447 226.151 273.687 226.291 273.921 226.432C274.395 226.724 274.863 227.017 275.319 227.333L275.998 227.801C277.123 228.606 278.201 229.475 279.227 230.404C279.432 230.585 279.631 230.778 279.812 230.959L280.397 231.544L280.602 231.755C281.04 232.2 281.473 232.662 281.889 233.13L282.093 233.358L282.175 233.457C282.511 233.847 282.833 234.237 283.141 234.627C283.439 235.008 283.726 235.394 284.006 235.797C284.047 235.862 284.094 235.92 284.135 235.973C284.176 236.025 284.135 235.973 284.135 235.973C284.293 236.195 284.445 236.423 284.603 236.651C284.656 236.727 284.703 236.809 284.761 236.885C285.013 237.266 285.252 237.658 285.498 238.055C285.639 238.289 285.779 238.529 285.913 238.769C286.048 239.003 286.183 239.243 286.311 239.494C286.58 239.98 286.832 240.477 287.072 240.974C287.434 241.729 287.774 242.495 288.078 243.285C288.283 243.8 288.476 244.332 288.663 244.865C291.179 252.332 291.083 260.432 288.388 267.837C288.113 268.563 287.803 269.276 287.51 269.984L287.317 270.411C287.119 270.838 286.92 271.265 286.732 271.681C286.218 272.675 285.662 273.634 285.071 274.57C284.65 275.218 284.211 275.85 283.755 276.466L283.462 276.858C283.234 277.156 283 277.443 282.76 277.741C282.673 277.858 282.579 277.969 282.485 278.08C282.17 278.455 281.859 278.829 281.538 279.18C281.157 279.59 280.777 279.993 280.368 280.379C279.195 281.553 277.94 282.642 276.612 283.638C276.39 283.807 276.173 283.965 275.945 284.123L275.659 284.322C275.39 284.509 275.12 284.702 274.84 284.872C274.559 285.042 274.196 285.293 273.863 285.498L273.518 285.703C273.155 285.919 272.786 286.136 272.418 286.334C271.687 286.726 270.932 287.107 270.16 287.452C269.645 287.686 269.13 287.902 268.615 288.113C267.75 288.44 266.86 288.756 265.971 289.025C259.345 291.023 252.273 290.998 245.66 288.955C244.9 288.762 244.104 288.499 243.315 288.177ZM301.691 227.988C298.352 227.989 295.088 227 292.312 225.146C289.536 223.292 287.372 220.656 286.094 217.572C284.816 214.488 284.481 211.094 285.132 207.82C285.783 204.545 287.39 201.538 289.751 199.177C292.112 196.816 295.119 195.209 298.394 194.558C301.668 193.907 305.062 194.242 308.146 195.52C311.23 196.798 313.866 198.962 315.72 201.738C317.574 204.514 318.563 207.778 318.562 211.117C318.562 215.591 316.784 219.882 313.62 223.046C310.456 226.21 306.165 227.988 301.691 227.988Z" fill="url(#paint14_linear_201_34)"/>
<path d="M355.656 294.981C355.392 295.648 355.123 296.309 354.848 296.97C354.638 297.484 354.421 297.993 354.199 298.497C353.983 299.017 353.749 299.532 353.515 300.041C353.374 300.363 353.234 300.673 353.082 300.989C353.009 301.166 352.927 301.34 352.836 301.509C352.702 301.796 352.567 302.094 352.427 302.381C352.228 302.802 352.023 303.223 351.842 303.639C351.66 304.054 351.485 304.346 351.298 304.703C350.894 305.499 350.479 306.294 350.046 307.078C349.853 307.435 349.665 307.78 349.461 308.12C349.168 308.658 348.876 309.19 348.548 309.722C348.302 310.155 348.051 310.577 347.793 311.004C347.236 311.94 346.662 312.86 346.074 313.765L345.489 314.718C344.541 316.161 343.556 317.579 342.534 318.971C342.33 319.258 342.119 319.556 341.897 319.831C340.996 321.06 340.066 322.253 339.101 323.435L338.597 324.02C338.012 324.71 337.427 325.388 336.842 326.073C336.257 326.757 335.766 327.295 335.21 327.898C335.058 328.074 334.894 328.249 334.731 328.43C334.309 328.887 333.888 329.337 333.461 329.782C332.812 330.466 332.145 331.145 331.472 331.812C330.998 332.285 330.519 332.753 330.027 333.221L329.179 334.029C328.887 334.304 328.594 334.573 328.302 334.842C328.185 334.947 328.073 335.058 327.956 335.152C327.641 335.444 327.325 335.737 326.997 336.012C326.359 336.597 325.716 337.147 325.055 337.697L324.242 338.375L323.323 339.136C322.814 339.545 322.294 339.955 321.779 340.358C321.264 340.762 320.738 341.166 320.217 341.528C319.813 341.832 319.41 342.113 318.994 342.423C318.749 342.611 318.503 342.786 318.252 342.961C317.893 343.223 317.53 343.48 317.163 343.734C317.076 343.798 316.994 343.862 316.9 343.921L315.379 344.956L313.73 346.039C313.145 346.419 312.53 346.799 311.922 347.168C310.851 347.823 309.775 348.466 308.681 349.08L308.149 349.379C307.739 349.613 307.318 349.841 306.903 350.063C306.318 350.385 305.733 350.689 305.148 350.993C304.563 351.298 303.978 351.578 303.393 351.894C302.172 352.503 300.938 353.088 299.69 353.649C299.105 353.907 298.52 354.158 297.935 354.404C297.35 354.65 296.958 354.819 296.461 354.989C296.209 355.1 295.963 355.194 295.718 355.287C295.221 355.492 294.723 355.685 294.22 355.872C293.717 356.059 293.278 356.223 292.805 356.399L292.272 356.592C291.687 356.796 291.143 356.995 290.57 357.177L290.336 357.253L288.528 357.838C287.891 358.043 287.247 358.241 286.604 358.423L284.808 358.938L284.556 359.008C284.17 359.113 283.778 359.224 283.386 359.324L282.801 359.476L282.169 359.64C281.701 359.751 281.228 359.874 280.76 359.979C280.175 360.131 279.537 360.265 278.929 360.4L278.431 360.505C277.846 360.622 277.326 360.739 276.764 360.845C276.202 360.95 275.594 361.073 275.009 361.178L274.758 361.219C274.173 361.318 273.629 361.418 273.061 361.5C272.213 361.646 271.359 361.763 270.505 361.88C269.996 361.95 269.487 362.02 268.972 362.073C268.697 362.114 268.416 362.149 268.13 362.173C267.627 362.231 267.118 362.29 266.603 362.33H266.492C265.936 362.389 265.38 362.442 264.819 362.483C264.158 362.541 263.502 362.582 262.841 362.623C262.537 362.623 262.256 362.658 261.923 362.676C261.385 362.711 260.847 362.728 260.303 362.752C259.636 362.781 258.963 362.798 258.29 362.816H258.097C257.424 362.816 256.752 362.816 256.073 362.816C255.394 362.816 254.722 362.816 254.049 362.816H253.856C253.183 362.816 252.51 362.781 251.844 362.752C251.294 362.752 250.744 362.711 250.194 362.676C249.901 362.676 249.609 362.676 249.311 362.623C248.673 362.588 248.035 362.541 247.398 362.488C246.76 362.436 246.228 362.389 245.643 362.33H245.526C245.011 362.29 244.502 362.231 243.999 362.173C243.724 362.173 243.455 362.114 243.186 362.073C242.648 362.02 242.115 361.95 241.589 361.88C240.741 361.763 239.904 361.634 239.067 361.5C238.482 361.418 237.927 361.318 237.371 361.219C236.692 361.096 236.02 360.979 235.353 360.845C234.768 360.739 234.241 360.622 233.686 360.505L233.194 360.4C232.574 360.265 231.966 360.131 231.357 359.979C230.854 359.868 230.357 359.739 229.866 359.616C229.678 359.577 229.497 359.53 229.322 359.476L228.737 359.329L227.52 359.002L227.274 358.938L225.478 358.423C224.835 358.23 224.197 358.031 223.559 357.838L222.015 357.335C221.746 357.241 221.471 357.153 221.202 357.054C220.81 356.925 220.424 356.785 220.032 356.639C219.786 356.557 219.529 356.463 219.283 356.369L217.862 355.843C217.364 355.65 216.861 355.457 216.364 355.258C216.118 355.164 215.873 355.071 215.621 354.96C215.124 354.761 214.638 354.556 214.147 354.375C213.562 354.117 212.936 353.86 212.345 353.579C211.052 352.994 209.783 352.409 208.519 351.783C207.987 351.52 207.466 351.251 206.94 350.976C206.413 350.701 205.77 350.391 205.185 350.046C204.77 349.823 204.348 349.595 203.939 349.361L203.407 349.063C202.313 348.478 201.236 347.805 200.166 347.15C199.581 346.781 198.955 346.401 198.358 346.021L196.708 344.939L195.187 343.903C195.094 343.845 195.012 343.78 194.924 343.716C194.558 343.467 194.195 343.209 193.836 342.944C193.585 342.768 193.339 342.593 193.093 342.406C192.678 342.119 192.274 341.821 191.871 341.511C191.35 341.119 190.823 340.715 190.309 340.341C189.794 339.966 189.273 339.528 188.764 339.118L187.846 338.358L187.033 337.679C186.377 337.129 185.73 336.568 185.091 335.994C184.763 335.713 184.447 335.409 184.131 335.134C184.014 335.041 183.903 334.93 183.786 334.824C183.488 334.555 183.201 334.286 182.908 334.011L182.06 333.204C181.569 332.736 181.089 332.268 180.615 331.794C179.943 331.127 179.276 330.449 178.626 329.764C178.199 329.32 177.778 328.869 177.357 328.413C177.193 328.231 177.029 328.056 176.877 327.88C176.292 327.296 175.783 326.67 175.245 326.055C174.707 325.441 174.075 324.692 173.49 324.002L172.987 323.417C172.022 322.247 171.086 321.042 170.191 319.814C169.969 319.533 169.758 319.229 169.553 318.954C168.535 317.561 167.551 316.144 166.599 314.701L165.985 313.747C165.396 312.838 164.823 311.918 164.265 310.986C164.008 310.559 163.756 310.138 163.51 309.705C163.194 309.173 162.89 308.64 162.598 308.102C162.399 307.763 162.212 307.418 162.013 307.061C161.58 306.277 161.164 305.481 160.761 304.686C160.574 304.329 160.398 303.978 160.217 303.621C160.035 303.264 159.801 302.784 159.603 302.363C159.462 302.071 159.328 301.778 159.193 301.492C159.102 301.323 159.02 301.149 158.947 300.971C158.795 300.655 158.655 300.345 158.514 300.023C158.28 299.514 158.046 299 157.83 298.479C157.614 297.958 157.391 297.467 157.181 296.952C156.906 296.291 156.637 295.63 156.373 294.963C167.841 310.632 182.842 323.376 200.158 332.161C217.474 340.946 236.618 345.524 256.035 345.524C275.452 345.524 294.596 340.946 311.912 332.161C329.228 323.376 344.229 310.632 355.697 294.963L355.656 294.981Z" fill="url(#paint15_linear_201_34)"/>
<path opacity="0.1" d="M355.661 217.054C344.197 201.379 329.197 188.629 311.879 179.839C294.561 171.05 275.415 166.469 255.994 166.469C236.574 166.469 217.427 171.05 200.109 179.839C182.791 188.629 167.791 201.379 156.327 217.054C156.525 216.551 156.72 216.054 156.912 215.563C156.958 215.44 157.011 215.323 157.058 215.2C157.514 214.112 157.97 213.035 158.456 211.971L158.702 211.433C158.965 210.848 159.234 210.292 159.503 209.724C159.772 209.157 160.088 208.554 160.381 207.969C160.965 206.799 161.597 205.629 162.235 204.46C162.545 203.875 162.861 203.336 163.177 202.781C163.177 202.751 163.212 202.716 163.235 202.687C163.551 202.102 163.879 201.576 164.212 201.026C164.546 200.476 164.85 199.979 165.166 199.458L165.248 199.341C165.944 198.218 166.669 197.118 167.406 196.024L168.529 194.398C168.851 193.947 169.167 193.497 169.495 193.058L169.723 192.748C170.103 192.227 170.483 191.718 170.893 191.215C171.302 190.712 171.688 190.168 172.104 189.659C172.519 189.15 172.923 188.63 173.338 188.121C173.382 188.078 173.421 188.031 173.455 187.98C173.835 187.53 174.21 187.074 174.625 186.623V186.594C174.906 186.261 175.21 185.933 175.485 185.599C175.637 185.418 175.795 185.231 175.959 185.055C176.38 184.587 176.795 184.119 177.222 183.663C177.649 183.207 178.112 182.698 178.568 182.224C179.024 181.75 179.48 181.282 179.943 180.814C180.405 180.346 180.802 179.943 181.241 179.516L181.475 179.293C181.902 178.878 182.323 178.468 182.756 178.065C183.189 177.661 183.628 177.252 184.073 176.848C184.605 176.368 185.143 175.895 185.681 175.421C186.108 175.04 186.541 174.672 186.974 174.309L187.179 174.134C188.185 173.285 189.203 172.461 190.244 171.653C190.759 171.25 191.285 170.852 191.806 170.454C192.157 170.191 192.502 169.928 192.853 169.676L193.035 169.547C193.245 169.384 193.456 169.231 193.678 169.079L195.006 168.138L195.129 168.056C195.632 167.705 196.135 167.365 196.644 167.026C197.153 166.687 197.744 166.301 198.294 165.944C198.844 165.587 199.411 165.236 199.973 164.891C200.889 164.325 201.817 163.772 202.757 163.229C203.541 162.779 204.325 162.34 205.097 161.907C205.653 161.609 206.214 161.322 206.776 161.024C207.338 160.726 208.004 160.392 208.63 160.082L210.42 159.216C210.924 158.982 211.427 158.748 211.93 158.526C212.123 158.433 212.31 158.345 212.515 158.263L214.077 157.584C214.691 157.321 215.305 157.064 215.925 156.818C216.545 156.572 217.165 156.321 217.791 156.081L219.213 155.549L219.962 155.28L221.132 154.87L222.032 154.566C222.454 154.414 222.887 154.279 223.314 154.139C224.021 153.916 224.723 153.694 225.437 153.484C226.022 153.302 226.607 153.133 227.233 152.963L227.479 152.899L228.695 152.577C228.883 152.518 229.07 152.477 229.28 152.425C229.491 152.372 229.672 152.319 229.865 152.279C230.339 152.15 230.825 152.039 231.305 151.922C231.784 151.805 232.322 151.682 232.831 151.577C233.656 151.395 234.475 151.226 235.3 151.062C235.885 150.945 236.47 150.834 237.055 150.728C238.564 150.459 240.085 150.219 241.618 150.02C242.092 149.95 242.571 149.892 243.045 149.833L243.712 149.757C243.846 149.735 243.98 149.721 244.116 149.716C244.549 149.658 244.97 149.617 245.403 149.576H245.689C246.228 149.517 246.766 149.471 247.31 149.424L249.234 149.289L250.129 149.242C250.674 149.207 251.218 149.184 251.762 149.166C252.434 149.166 253.107 149.114 253.78 149.102H253.973C254.646 149.102 255.318 149.102 255.997 149.102C256.675 149.102 257.348 149.102 258.021 149.102H258.208C258.881 149.102 259.554 149.137 260.226 149.166C260.765 149.166 261.297 149.207 261.835 149.242L262.759 149.289C263.432 149.336 264.099 149.377 264.76 149.435C265.275 149.476 265.784 149.517 266.299 149.576H266.585C267.018 149.617 267.439 149.658 267.872 149.716C268.007 149.721 268.142 149.735 268.276 149.757L268.978 149.833L270.329 150.015C271.889 150.221 273.422 150.459 274.927 150.728L276.682 151.062C278.074 151.337 279.461 151.647 280.836 151.968C281.227 152.05 281.619 152.15 282.006 152.249L282.702 152.425C284.702 152.943 286.684 153.515 288.645 154.139C289.072 154.279 289.505 154.414 289.926 154.566L290.827 154.87C291.225 155.005 291.617 155.139 291.997 155.28C292.728 155.537 293.448 155.806 294.173 156.081C294.793 156.321 295.408 156.561 296.016 156.812L296.402 156.964C296.899 157.163 297.391 157.368 297.882 157.584C298.374 157.801 298.836 157.994 299.304 158.204C302.307 159.538 305.232 161.003 308.078 162.598L309.202 163.229C310.764 164.125 312.29 165.061 313.8 166.032C314.309 166.353 314.818 166.687 315.321 167.026C315.993 167.471 316.654 167.927 317.31 168.389C317.626 168.606 317.93 168.816 318.234 169.044C318.538 169.272 318.702 169.378 318.924 169.547C319.884 170.245 320.831 170.959 321.767 171.688C322.27 172.075 322.773 172.478 323.265 172.858C324.899 174.177 326.486 175.542 328.027 176.953C328.424 177.316 328.81 177.673 329.197 178.041C329.583 178.41 330.051 178.855 330.478 179.27C331.466 180.223 332.437 181.206 333.403 182.195C333.859 182.669 334.309 183.148 334.748 183.634C335.187 184.119 335.596 184.558 336.012 185.026L336.491 185.57C336.784 185.904 337.076 186.231 337.345 186.565C337.345 186.565 337.345 186.565 337.345 186.594C337.737 187.044 338.118 187.501 338.515 187.951C338.551 188.001 338.59 188.047 338.632 188.092C339.048 188.6 339.457 189.115 339.867 189.63C340.276 190.145 340.686 190.665 341.078 191.186C341.47 191.707 341.844 192.198 342.248 192.719C342.33 192.818 342.4 192.924 342.476 193.029C342.803 193.468 343.119 193.918 343.441 194.368L344.564 195.995C345.301 197.089 346.027 198.188 346.723 199.312L346.805 199.429C347.121 199.949 347.442 200.47 347.758 200.996C348.074 201.523 348.419 202.096 348.735 202.658C348.735 202.687 348.77 202.722 348.794 202.751C349.11 203.307 349.425 203.869 349.736 204.43C350.373 205.6 350.993 206.77 351.59 207.94C351.888 208.525 352.175 209.11 352.467 209.695C352.76 210.28 353.006 210.83 353.269 211.403L353.515 211.942C353.994 213.006 354.456 214.083 354.913 215.171C354.959 215.294 355.012 215.41 355.059 215.533L355.661 217.054Z" fill="#F1F2F2"/>
<path opacity="0.29" d="M233.223 441.702C205.378 436.377 179.781 422.79 159.766 402.712L91.1179 334.058L25.5991 268.539C15.3467 258.279 6.71494 246.519 1.02991e-09 233.662V143.574C-2.5007e-05 136.921 0.455382 130.275 1.36302 123.684C1.53852 122.391 1.73742 121.093 1.94801 119.812C2.37506 117.226 2.87815 114.687 3.45143 112.154C2.99915 117.662 2.84488 123.191 2.98929 128.715C2.98929 129.581 3.04194 130.47 3.07704 131.318C3.29544 136.669 3.75953 142.016 4.46931 147.359C4.53366 147.844 4.60386 148.336 4.67991 148.827C4.77351 149.576 4.88466 150.325 5.00166 151.073C5.1596 152.138 5.3351 153.209 5.51059 154.273C5.54569 154.437 5.56324 154.595 5.59249 154.753C5.75044 155.677 5.92009 156.607 6.09558 157.532C6.68057 160.615 7.30066 163.674 8.0085 166.739C8.20739 167.611 8.41799 168.494 8.63444 169.366C8.80408 170.062 8.97958 170.77 9.16677 171.466C9.35397 172.162 9.52947 172.946 9.75176 173.683C10.0443 174.818 10.3368 175.947 10.6702 177.082C11.0036 178.217 11.3371 179.422 11.6881 180.592C11.9396 181.446 12.197 182.288 12.4603 183.143C12.6182 183.657 12.7703 184.166 12.9283 184.675C13.1973 185.529 13.4723 186.395 13.7589 187.249C14.1684 188.53 14.6072 189.823 15.0401 191.093C15.356 192.029 15.6796 192.955 16.0111 193.871C16.0813 194.099 16.1691 194.328 16.251 194.562C16.3329 194.796 16.4265 195.07 16.5318 195.322C16.8418 196.217 17.1753 197.112 17.5087 198.007C18.2536 200.027 19.0219 202.03 19.8136 204.015C20.2055 205.027 20.615 206.039 21.0303 207.045C21.1883 207.443 21.3404 207.841 21.51 208.215C21.6797 208.59 21.8844 209.11 22.095 209.549C22.3056 209.988 22.3992 210.28 22.5513 210.643C22.8848 211.433 23.2182 212.228 23.575 213.018C24.0957 214.235 24.628 215.457 25.1662 216.662C25.6576 217.78 26.1548 218.88 26.6696 219.985C27.4067 221.588 28.1438 223.191 28.9043 224.776C30.5657 228.255 32.268 231.689 34.0112 235.078L34.0756 235.201C34.5611 236.172 35.0642 237.125 35.5732 238.085C36.1582 239.167 36.7431 240.249 37.293 241.326C38.463 243.478 39.633 245.606 40.803 247.708C43.0786 251.768 45.401 255.751 47.7468 259.624C48.1212 260.238 48.4839 260.852 48.8641 261.455C50.9974 264.965 53.1423 268.364 55.299 271.651C55.884 272.582 56.469 273.482 57.0891 274.389C57.7091 275.296 58.3 276.226 58.9025 277.133L60.558 279.59C65.3491 286.68 70.07 293.249 74.5042 299.187C77.9088 303.726 81.1496 307.915 84.1565 311.676C88.1223 317.85 92.7368 323.583 97.9213 328.776L103.555 334.403L143.392 374.253L183.23 414.09C183.85 414.71 184.488 415.336 185.131 415.939C186.414 417.163 187.717 418.333 189.039 419.449C190.361 420.619 191.718 421.689 193.081 422.748C194.444 423.807 195.843 424.831 197.247 425.813C198.352 426.574 199.452 427.323 200.581 428.031C201.078 428.352 201.57 428.668 202.079 428.967C202.587 429.265 203.161 429.633 203.711 429.955C205.173 430.821 206.636 431.646 208.139 432.424C209.642 433.202 211.152 433.957 212.673 434.664C214.194 435.372 215.837 436.08 217.44 436.729L217.733 436.852L217.932 436.922C218.031 436.963 218.148 437.016 218.253 437.051L220.114 437.771L220.98 438.081L221.564 438.297C221.992 438.455 222.419 438.601 222.857 438.748C223.723 439.04 224.612 439.333 225.461 439.59C226.309 439.847 227.215 440.122 228.075 440.362C228.596 440.508 229.105 440.655 229.626 440.789C229.69 440.789 229.76 440.818 229.825 440.842L230.41 440.988L233.106 441.632C233.147 441.653 233.186 441.676 233.223 441.702Z" fill="url(#paint16_linear_201_34)"/>
<path opacity="0.09" d="M444.147 260.115C443.175 296.307 428.337 330.741 402.701 356.305L268.516 490.478C264.561 494.424 260.379 498.136 255.991 501.593C251.2 505.386 246.162 508.857 240.91 511.982H149.009C163.487 508.755 177.74 504.591 191.678 499.516C205.187 494.604 218.401 488.912 231.252 482.47C232.194 482.002 233.13 481.534 234.054 481.054C237.857 479.104 241.579 477.133 245.222 475.14C246.199 474.555 247.176 474.046 248.147 473.502C249.428 472.782 250.697 472.069 251.961 471.337L254.377 469.933C254.511 469.857 254.646 469.787 254.78 469.699C255.049 469.547 255.324 469.378 255.582 469.22C255.98 468.986 256.377 468.752 256.752 468.512C265.135 463.534 273.02 458.444 280.385 453.361C281.602 452.53 282.807 451.682 283.995 450.851C285.925 449.488 287.809 448.131 289.663 446.791L294.343 443.351C295.344 442.603 296.32 441.854 297.268 441.111C297.912 440.625 298.543 440.146 299.169 439.654C299.795 439.163 300.433 438.677 301.047 438.198L302.077 437.385C302.855 436.8 303.639 436.156 304.417 435.542C305.195 434.928 305.949 434.325 306.698 433.717C309.21 431.685 311.618 429.694 313.923 427.744C315.093 426.785 316.192 425.825 317.286 424.877C318.608 423.731 319.897 422.606 321.153 421.502C321.779 420.952 322.393 420.408 322.996 419.858C323.394 419.501 323.786 419.162 324.166 418.805C331.519 412.183 337.469 406.339 341.926 401.759L342.973 400.676C344.442 399.144 345.734 397.752 346.828 396.582C347.185 396.207 347.519 395.839 347.829 395.499C348.139 395.16 348.361 394.914 348.607 394.645C350.461 392.592 351.473 391.393 351.596 391.241L414.085 328.775C414.705 328.155 415.331 327.518 415.939 326.874C416.091 326.705 416.261 326.541 416.407 326.371L416.705 326.049C416.887 325.862 417.08 325.652 417.249 325.464C417.419 325.277 417.53 325.172 417.653 325.026C417.684 325 417.713 324.973 417.741 324.944C417.834 324.827 417.934 324.71 418.039 324.599C418.291 324.33 418.53 324.055 418.759 323.786C418.987 323.516 419.162 323.329 419.344 323.095L419.677 322.703C419.97 322.37 420.262 322.025 420.543 321.674C420.742 321.44 420.941 321.2 421.128 320.96C421.625 320.375 422.105 319.79 422.573 319.152C422.842 318.805 423.105 318.46 423.362 318.117C423.438 318.023 423.52 317.924 423.596 317.819C423.813 317.538 424.023 317.234 424.228 316.965C424.304 316.871 424.363 316.777 424.439 316.684C424.825 316.151 425.211 315.619 425.609 315.081C425.907 314.654 426.194 314.215 426.504 313.776C427.118 312.893 427.709 311.986 428.259 311.08C428.352 310.945 428.44 310.799 428.522 310.653C428.604 310.506 428.75 310.307 428.844 310.132C429.206 309.547 429.563 308.962 429.908 308.377C430.183 307.921 430.441 307.47 430.704 307.014L430.921 306.628C431.295 305.984 431.652 305.323 432.003 304.668L432.12 304.452C432.418 303.867 432.705 303.282 433.015 302.732C433.138 302.504 433.255 302.264 433.366 302.024C433.699 301.369 434.027 300.702 434.337 300.035C434.647 299.368 435.033 298.543 435.366 297.795C435.7 297.046 436.022 296.297 436.337 295.536C436.566 294.951 436.794 294.413 437.01 293.852C437.053 293.777 437.085 293.696 437.104 293.612C437.203 293.39 437.285 293.173 437.367 292.951C437.407 292.863 437.442 292.773 437.472 292.682C437.595 292.36 437.712 292.05 437.823 291.722C437.993 291.307 438.139 290.88 438.286 290.453C438.308 290.422 438.322 290.386 438.326 290.348C438.333 290.325 438.333 290.3 438.326 290.277C438.362 290.201 438.379 290.131 438.414 290.067C438.436 289.983 438.464 289.901 438.496 289.821C438.66 289.33 438.841 288.838 438.993 288.341C439.11 288.008 439.216 287.674 439.321 287.341C439.426 287.007 439.526 286.674 439.631 286.34C439.859 285.592 440.076 284.849 440.286 284.1C440.296 284.066 440.296 284.029 440.286 283.995C440.313 283.939 440.331 283.88 440.339 283.819C440.38 283.673 440.427 283.515 440.467 283.363C440.567 283.006 440.666 282.643 440.76 282.281C440.854 281.918 440.947 281.59 441.029 281.245C441.029 281.245 441.029 281.245 441.029 281.216C441.046 281.154 441.06 281.092 441.07 281.029C441.066 280.984 441.066 280.939 441.07 280.894C441.123 280.725 441.164 280.537 441.205 280.362C441.246 280.186 441.298 279.964 441.339 279.777C441.38 279.59 441.456 279.297 441.509 279.051C441.527 279.001 441.537 278.947 441.538 278.894C441.602 278.636 441.667 278.361 441.725 278.104L441.79 277.788C441.852 277.507 441.91 277.226 441.965 276.946C441.984 276.88 441.997 276.814 442.006 276.747C442.01 276.71 442.01 276.672 442.006 276.635C442.035 276.546 442.057 276.454 442.07 276.361C442.073 276.341 442.073 276.321 442.07 276.302C442.146 275.98 442.205 275.653 442.258 275.331C442.363 274.822 442.456 274.301 442.538 273.792C442.573 273.658 442.591 273.517 442.614 273.383C442.638 273.248 442.667 273.102 442.685 272.968C442.702 272.833 442.726 272.71 442.749 272.57C442.802 272.248 442.854 271.926 442.895 271.616C442.936 271.306 442.977 271.072 443.018 270.803C443.04 270.703 443.053 270.601 443.059 270.499C443.064 270.45 443.064 270.401 443.059 270.353C443.153 269.686 443.246 269.013 443.316 268.346C443.387 267.679 443.486 266.971 443.55 266.281V265.971C443.556 265.895 443.556 265.819 443.55 265.743C443.55 265.743 443.55 265.743 443.55 265.708C443.55 265.456 443.597 265.216 443.621 264.971C443.662 264.52 443.691 264.082 443.726 263.637C443.726 263.479 443.726 263.321 443.726 263.181C443.731 263.138 443.731 263.095 443.726 263.052C443.753 262.662 443.777 262.288 443.796 261.929C443.796 261.572 443.843 261.221 443.849 260.876C443.855 260.835 443.855 260.794 443.849 260.753C443.849 260.659 443.849 260.572 443.849 260.478V260.396C444.141 260.291 444.141 260.197 444.147 260.115Z" fill="white"/>
<defs>
<linearGradient id="paint0_linear_201_34" x1="149.014" y1="352.391" x2="511.988" y2="352.391" gradientUnits="userSpaceOnUse">
<stop stop-color="#BE61A6"/>
<stop offset="1" stop-color="#6D67AE"/>
</linearGradient>
<linearGradient id="paint1_linear_201_34" x1="2.94244" y1="155.847" x2="389.579" y2="155.847" gradientUnits="userSpaceOnUse">
<stop stop-color="#6D67AE"/>
<stop offset="1" stop-color="#BE61A6"/>
</linearGradient>
<linearGradient id="paint2_linear_201_34" x1="197.837" y1="185.003" x2="511.988" y2="185.003" gradientUnits="userSpaceOnUse">
<stop offset="0.34" stop-color="#EF4F7F"/>
<stop offset="1" stop-color="#F89733"/>
</linearGradient>
<linearGradient id="paint3_linear_201_34" x1="426.749" y1="393.329" x2="511.988" y2="393.329" gradientUnits="userSpaceOnUse">
<stop stop-color="#8054A2" stop-opacity="0.6"/>
<stop offset="1" stop-color="#5A5AA7"/>
</linearGradient>
<linearGradient id="paint4_linear_201_34" x1="278.952" y1="33.362" x2="465.043" y2="33.362" gradientUnits="userSpaceOnUse">
<stop stop-color="#EF4F7F"/>
<stop offset="1" stop-color="#EC645E" stop-opacity="0.6"/>
</linearGradient>
<linearGradient id="paint5_linear_201_34" x1="197.837" y1="200.382" x2="511.988" y2="200.382" gradientUnits="userSpaceOnUse">
<stop offset="0.34" stop-color="#EF4F7F"/>
<stop offset="0.47" stop-color="#F05777"/>
<stop offset="0.68" stop-color="#F36B61"/>
<stop offset="0.93" stop-color="#F78D3D"/>
<stop offset="1" stop-color="#F89733"/>
</linearGradient>
<linearGradient id="paint6_linear_201_34" x1="2.94255" y1="115.524" x2="101.472" y2="115.524" gradientUnits="userSpaceOnUse">
<stop stop-color="#5A5AA7"/>
<stop offset="1" stop-color="#8054A2" stop-opacity="0.6"/>
</linearGradient>
<linearGradient id="paint7_linear_201_34" x1="7.30323e-05" y1="312.057" x2="351.619" y2="312.057" gradientUnits="userSpaceOnUse">
<stop stop-color="#F89733"/>
<stop offset="0.66" stop-color="#EF4F7F"/>
</linearGradient>
<linearGradient id="paint8_linear_201_34" x1="0.000131557" y1="441.83" x2="231.258" y2="441.83" gradientUnits="userSpaceOnUse">
<stop stop-color="#EF6361" stop-opacity="0.6"/>
<stop offset="0.01" stop-color="#EF6361" stop-opacity="0.58"/>
<stop offset="0.02" stop-color="#EF6361" stop-opacity="0.53"/>
<stop offset="0.04" stop-color="#EF6361" stop-opacity="0.4"/>
<stop offset="0.2" stop-color="#EF6262" stop-opacity="0.42"/>
<stop offset="0.36" stop-color="#EF6064" stop-opacity="0.47"/>
<stop offset="0.52" stop-color="#EF5D69" stop-opacity="0.56"/>
<stop offset="0.69" stop-color="#EF596F" stop-opacity="0.68"/>
<stop offset="0.85" stop-color="#EF5377" stop-opacity="0.83"/>
<stop offset="1" stop-color="#EF4D7F"/>
</linearGradient>
<linearGradient id="paint9_linear_201_34" x1="307.406" y1="249.896" x2="201.418" y2="355.884" gradientUnits="userSpaceOnUse">
<stop stop-color="#6065AE"/>
<stop offset="1" stop-color="#E3519D"/>
</linearGradient>
<linearGradient id="paint10_linear_201_34" x1="125163" y1="22989.2" x2="117642" y2="45053.8" gradientUnits="userSpaceOnUse">
<stop stop-color="#6065AE"/>
<stop offset="1" stop-color="#E3519D"/>
</linearGradient>
<linearGradient id="paint11_linear_201_34" x1="28.8749" y1="155.847" x2="389.579" y2="155.847" gradientUnits="userSpaceOnUse">
<stop stop-color="#6D67AE"/>
<stop offset="0.06" stop-color="#7A63AB"/>
<stop offset="0.16" stop-color="#8B5EA8"/>
<stop offset="0.3" stop-color="#965BA5"/>
<stop offset="0.48" stop-color="#9D59A3"/>
<stop offset="1" stop-color="#9F58A3"/>
</linearGradient>
<linearGradient id="paint12_linear_201_34" x1="149.014" y1="352.391" x2="483.739" y2="352.391" gradientUnits="userSpaceOnUse">
<stop stop-color="#9F58A3"/>
<stop offset="0.49" stop-color="#9D59A3"/>
<stop offset="0.69" stop-color="#965BA5"/>
<stop offset="0.83" stop-color="#8A5EA8"/>
<stop offset="0.94" stop-color="#7963AB"/>
<stop offset="1" stop-color="#6D67AE"/>
</linearGradient>
<linearGradient id="paint13_linear_201_34" x1="142338" y1="80542.3" x2="87038.7" y2="135867" gradientUnits="userSpaceOnUse">
<stop stop-color="#6065AE"/>
<stop offset="1" stop-color="#E3519D"/>
</linearGradient>
<linearGradient id="paint14_linear_201_34" x1="257.998" y1="121.572" x2="254.851" y2="332.753" gradientUnits="userSpaceOnUse">
<stop stop-color="#6065AE" stop-opacity="0"/>
<stop offset="1" stop-color="white"/>
</linearGradient>
<linearGradient id="paint15_linear_201_34" x1="156.332" y1="328.98" x2="355.656" y2="328.98" gradientUnits="userSpaceOnUse">
<stop stop-color="#E757A0"/>
<stop offset="1" stop-color="#8753A2"/>
</linearGradient>
<linearGradient id="paint16_linear_201_34" x1="1.02989e-09" y1="276.922" x2="233.223" y2="276.922" gradientUnits="userSpaceOnUse">
<stop stop-color="#F8BD2E"/>
<stop offset="1" stop-color="white" stop-opacity="0.5"/>
</linearGradient>
</defs>
</svg>
